<svg width="276" height="33" viewBox="0 0 276 33" fill="none" xmlns="http://www.w3.org/2000/svg">
<g clip-path="url(#clip0_1_23)">
<path d="M0.683167 31.8557V1.02996H7.09225V26.5561H22.4299V31.8557H0.683167Z" fill="#D27487"/>
<path d="M31.1988 25.3196V20.02H49.0117V25.3196H31.1988ZM34.9558 1.02996H44.459L52.8571 31.8557H46.3155L41.5418 13.3955L39.6853 5.66706L37.8289 13.3955L32.9669 31.8557H26.602L34.9558 1.02996Z" fill="#D27487"/>
<path d="M64.3086 31.8557V6.32951H54.9822V1.02996H80.044V6.32951H70.7176V31.8557H64.3086Z" fill="#D27487"/>
<path d="M93.0562 31.8557V6.32951H83.7299V1.02996H108.792V6.32951H99.4655V31.8557H93.0562Z" fill="#D27487"/>
<path d="M114.025 31.8557V1.02996H136.655V6.32951H120.478V13.2631H131.174V18.5626H120.478V26.5561H136.832V31.8557H114.025Z" fill="#D27487"/>
<path d="M180.098 32.3856C177.328 32.3856 174.941 31.7232 172.937 30.3983C170.933 29.0734 169.387 27.2186 168.296 24.8337C167.206 22.4195 166.661 19.6225 166.661 16.4428C166.661 13.2042 167.22 10.3925 168.34 8.00769C169.46 5.6229 171.036 3.78278 173.07 2.48733C175.133 1.16244 177.549 0.5 180.318 0.5C182.499 0.5 184.503 0.926907 186.33 1.78072C188.157 2.63454 189.645 3.87111 190.794 5.49041C191.973 7.08027 192.636 9.00871 192.784 11.2757H185.756C185.578 9.627 185.019 8.30211 184.076 7.30108C183.133 6.30006 181.88 5.79955 180.318 5.79955C178.963 5.79955 177.755 6.21174 176.695 7.0361C175.633 7.86048 174.794 9.06761 174.175 10.6575C173.585 12.2473 173.29 14.1758 173.29 16.4428C173.29 18.7098 173.585 20.6383 174.175 22.2282C174.764 23.818 175.56 25.0252 176.562 25.8495C177.593 26.6738 178.772 27.0861 180.098 27.0861C181.188 27.0861 182.146 26.8653 182.971 26.4236C183.795 25.9525 184.458 25.2901 184.96 24.4363C185.49 23.5824 185.814 22.5667 185.932 21.389H192.916C192.709 23.6267 192.061 25.5698 190.971 27.2186C189.88 28.8673 188.422 30.148 186.595 31.0608C184.768 31.944 182.603 32.3856 180.098 32.3856Z" fill="#D27487"/>
<path d="M199.916 25.3196V20.02H217.729V25.3196H199.916ZM203.674 1.02996H213.177L221.575 31.8557H215.033L210.259 13.3955L208.404 5.66706L206.547 13.3955L201.684 31.8557H195.319L203.674 1.02996Z" fill="#D27487"/>
<path d="M225.836 31.8557V1.02996H248.776V6.32951H232.245V13.2631H243.294V18.5626H232.245V31.8557H225.836Z" fill="#D27487"/>
<path d="M253.052 31.8557V1.02996H275.683V6.32951H259.506V13.2631H270.203V18.5626H259.506V26.5561H275.861V31.8557H253.052Z" fill="#D27487"/>
</g>
<defs>
<clipPath id="clip0_1_23">
<rect width="276" height="32" fill="white" transform="translate(0 0.5)"/>
</clipPath>
</defs>
</svg>
